<svg id="svg" version="1.1" width="400" height="506.6666666666667" xmlns="http://www.w3.org/2000/svg" xmlns:xlink="http://www.w3.org/1999/xlink" style="display: block;"><g id="svgg"><path id="path0" d="M0.000 253.200 L 0.000 506.400 8.000 506.400 L 16.000 506.400 16.000 504.834 L 16.000 503.268 19.100 502.986 C 23.061 502.626,23.200 502.497,23.200 499.212 L 23.200 496.522 28.650 496.248 C 35.780 495.890,36.400 495.500,36.400 491.374 L 36.400 489.600 39.320 489.600 C 42.941 489.600,43.200 489.358,43.200 485.968 L 43.200 483.297 49.044 483.005 C 56.119 482.651,56.400 482.490,56.400 478.800 L 56.400 476.400 59.167 476.400 C 62.205 476.400,63.200 476.162,63.200 475.437 C 63.200 475.174,64.012 474.565,65.003 474.083 C 66.371 473.419,67.019 472.771,67.683 471.403 L 68.559 469.600 71.803 469.600 C 75.987 469.600,76.340 469.329,76.486 466.000 L 76.600 463.400 79.841 463.131 C 87.767 462.474,88.918 461.904,89.400 458.402 L 89.675 456.400 92.264 456.400 C 95.444 456.400,96.400 455.947,96.400 454.442 C 96.400 453.820,96.512 452.496,96.648 451.500 L 96.897 449.688 102.442 449.536 C 109.007 449.356,109.283 449.207,109.596 445.690 L 109.800 443.400 112.743 443.137 C 116.344 442.816,116.316 442.843,116.642 439.334 L 116.907 436.486 122.597 436.339 C 129.419 436.163,129.459 436.141,129.831 432.369 L 130.103 429.600 133.225 429.600 C 135.846 429.600,136.382 429.488,136.569 428.900 C 136.691 428.515,137.553 427.834,138.483 427.387 C 139.697 426.802,140.398 426.107,140.971 424.918 L 141.769 423.262 145.491 422.983 C 149.763 422.663,149.653 422.757,149.907 419.204 L 150.099 416.517 154.624 416.275 C 161.420 415.910,162.800 415.049,162.800 411.174 L 162.800 409.600 166.010 409.600 C 169.736 409.600,170.000 409.320,170.000 405.374 L 170.000 403.200 172.700 403.178 C 181.312 403.110,182.672 402.546,183.054 398.889 L 183.314 396.400 186.243 396.400 C 189.757 396.400,190.000 396.130,190.000 392.226 L 190.000 389.600 195.724 389.600 C 202.751 389.600,202.890 389.530,203.122 385.889 L 203.288 383.281 206.461 383.137 C 208.206 383.057,209.761 382.799,209.917 382.562 C 210.073 382.325,210.822 381.918,211.583 381.657 C 213.480 381.008,214.734 379.732,215.209 377.967 L 215.609 376.482 219.019 376.341 C 223.058 376.174,223.185 376.052,223.194 372.358 L 223.200 369.716 228.133 369.503 C 233.847 369.257,235.399 368.708,235.767 366.807 C 235.895 366.143,236.099 365.085,236.219 364.456 C 236.433 363.344,236.522 363.306,239.480 363.083 C 243.064 362.811,243.186 362.682,243.194 359.150 L 243.200 356.501 249.010 356.326 C 255.884 356.119,256.002 356.055,256.358 352.327 L 256.600 349.800 259.800 349.600 L 263.000 349.400 263.116 346.358 L 263.232 343.315 269.290 343.100 C 276.388 342.849,276.400 342.842,276.400 338.924 L 276.400 336.400 279.576 336.400 C 281.323 336.400,282.854 336.236,282.978 336.035 C 283.103 335.834,283.923 335.548,284.801 335.400 C 286.985 335.031,288.056 334.049,288.783 331.749 L 289.400 329.800 292.382 329.681 C 295.976 329.537,296.398 329.240,296.405 326.851 C 296.416 323.279,296.326 323.351,301.131 323.065 C 308.270 322.641,309.600 321.816,309.600 317.813 L 309.600 316.400 312.500 316.394 C 316.180 316.386,316.226 316.348,316.560 313.013 C 316.910 309.527,316.282 309.867,322.853 309.611 C 329.002 309.372,329.600 309.121,329.600 306.774 C 329.600 303.525,329.875 303.200,332.617 303.200 C 335.873 303.200,336.327 302.995,336.628 301.393 C 336.777 300.595,337.580 299.329,338.632 298.231 L 340.387 296.400 343.967 296.400 C 349.218 296.400,349.489 296.236,349.821 292.862 L 350.095 290.085 353.147 289.803 C 354.826 289.647,356.380 289.382,356.600 289.212 C 356.820 289.043,357.695 288.779,358.543 288.626 C 360.461 288.280,361.858 286.826,362.196 284.825 L 362.453 283.300 365.641 283.115 C 369.527 282.890,369.734 282.701,369.932 279.193 L 370.090 276.400 373.545 276.371 C 381.055 276.307,382.303 275.769,382.842 272.363 C 383.244 269.816,383.526 269.614,386.686 269.606 C 389.675 269.599,390.000 269.209,390.000 265.626 L 390.000 263.200 395.000 263.200 L 400.000 263.200 400.000 253.200 L 400.000 243.200 395.000 243.200 L 390.000 243.200 390.000 240.676 C 390.000 237.318,389.621 236.911,386.315 236.719 C 383.121 236.535,383.252 236.636,382.839 234.020 C 382.303 230.633,381.046 230.093,373.545 230.029 L 370.090 230.000 369.932 227.207 C 369.734 223.699,369.527 223.510,365.641 223.285 L 362.453 223.100 362.196 221.575 C 361.858 219.574,360.461 218.120,358.543 217.774 C 357.695 217.621,356.820 217.357,356.600 217.188 C 356.380 217.018,354.829 216.753,353.154 216.598 L 350.108 216.316 349.862 213.686 C 349.543 210.262,349.486 210.224,344.538 210.062 L 340.314 209.925 338.596 208.131 C 337.574 207.064,336.776 205.799,336.628 205.007 C 336.327 203.405,335.873 203.200,332.617 203.200 C 329.875 203.200,329.600 202.875,329.600 199.626 C 329.600 197.279,329.002 197.028,322.853 196.789 C 316.282 196.533,316.910 196.873,316.560 193.387 C 316.227 190.058,316.174 190.014,312.556 190.006 L 309.712 190.000 309.478 187.733 C 309.106 184.133,307.130 183.252,299.347 183.212 C 296.569 183.198,296.416 183.008,296.405 179.549 C 296.398 177.160,295.976 176.863,292.382 176.719 L 289.400 176.600 288.783 174.651 C 288.056 172.351,286.985 171.369,284.801 171.000 C 283.923 170.852,283.103 170.566,282.978 170.365 C 282.854 170.164,281.323 170.000,279.576 170.000 L 276.400 170.000 276.400 167.476 C 276.400 163.558,276.388 163.551,269.290 163.300 L 263.232 163.085 263.116 160.042 L 263.000 157.000 259.800 156.800 L 256.600 156.600 256.358 154.073 C 256.002 150.345,255.884 150.281,249.010 150.074 L 243.200 149.899 243.194 147.250 C 243.186 143.718,243.064 143.589,239.480 143.317 C 236.522 143.094,236.433 143.056,236.219 141.944 C 236.099 141.315,235.895 140.257,235.767 139.593 C 235.399 137.692,233.847 137.143,228.133 136.897 L 223.200 136.684 223.194 134.042 C 223.185 130.405,223.052 130.272,219.139 130.016 L 215.830 129.800 215.555 128.449 C 214.923 125.341,210.939 123.211,205.747 123.203 L 203.293 123.200 203.125 120.552 C 202.890 116.864,202.764 116.800,195.724 116.800 L 190.000 116.800 190.000 114.174 C 190.000 110.270,189.757 110.000,186.243 110.000 L 183.314 110.000 183.054 107.511 C 182.664 103.778,181.562 103.322,172.700 103.228 L 170.000 103.200 170.000 101.026 C 170.000 97.080,169.736 96.800,166.010 96.800 L 162.800 96.800 162.800 95.226 C 162.800 91.351,161.420 90.490,154.624 90.125 L 150.099 89.883 149.907 87.196 C 149.653 83.643,149.763 83.737,145.491 83.417 L 141.769 83.138 140.971 81.482 C 140.398 80.293,139.697 79.598,138.483 79.013 C 137.553 78.566,136.691 77.885,136.569 77.500 C 136.382 76.912,135.846 76.800,133.225 76.800 L 130.103 76.800 129.831 74.031 C 129.459 70.259,129.419 70.237,122.597 70.061 L 116.907 69.914 116.642 67.066 C 116.316 63.557,116.344 63.584,112.743 63.263 L 109.800 63.000 109.596 60.710 C 109.283 57.193,109.007 57.044,102.442 56.864 L 96.897 56.712 96.648 54.900 C 96.512 53.904,96.400 52.580,96.400 51.958 C 96.400 50.456,95.444 50.000,92.291 50.000 L 89.729 50.000 89.365 47.738 C 88.841 44.493,88.138 44.081,82.188 43.542 C 75.905 42.972,76.400 43.256,76.400 40.227 C 76.400 37.026,76.091 36.800,71.706 36.800 L 68.559 36.800 67.683 34.997 C 67.019 33.629,66.371 32.981,65.003 32.317 C 64.012 31.835,63.200 31.226,63.200 30.963 C 63.200 30.238,62.205 30.000,59.167 30.000 L 56.400 30.000 56.400 27.600 C 56.400 23.910,56.119 23.749,49.044 23.395 L 43.200 23.103 43.200 20.432 C 43.200 17.042,42.941 16.800,39.320 16.800 L 36.400 16.800 36.400 15.026 C 36.400 10.900,35.780 10.510,28.650 10.152 L 23.200 9.878 23.200 7.188 C 23.200 3.903,23.061 3.774,19.100 3.414 L 16.000 3.132 16.000 1.566 L 16.000 0.000 8.000 0.000 L 0.000 0.000 0.000 253.200 " stroke="none" fill="#ffffff" fill-rule="evenodd"></path><path id="path1" d="M0.000 253.200 L 0.000 506.400 8.000 506.400 L 16.000 506.400 16.000 504.834 L 16.000 503.268 19.100 502.986 C 23.061 502.626,23.200 502.497,23.200 499.212 L 23.200 496.522 28.650 496.248 C 35.780 495.890,36.400 495.500,36.400 491.374 L 36.400 489.600 39.320 489.600 C 42.941 489.600,43.200 489.358,43.200 485.968 L 43.200 483.297 49.044 483.005 C 56.119 482.651,56.400 482.490,56.400 478.800 L 56.400 476.400 59.167 476.400 C 62.205 476.400,63.200 476.162,63.200 475.437 C 63.200 475.174,64.012 474.565,65.003 474.083 C 66.371 473.419,67.019 472.771,67.683 471.403 L 68.559 469.600 71.803 469.600 C 75.987 469.600,76.340 469.329,76.486 466.000 L 76.600 463.400 79.841 463.131 C 87.767 462.474,88.918 461.904,89.400 458.402 L 89.675 456.400 92.264 456.400 C 95.444 456.400,96.400 455.947,96.400 454.442 C 96.400 453.820,96.512 452.496,96.648 451.500 L 96.897 449.688 102.442 449.536 C 109.007 449.356,109.283 449.207,109.596 445.690 L 109.800 443.400 112.743 443.137 C 116.344 442.816,116.316 442.843,116.642 439.334 L 116.907 436.486 122.597 436.339 C 129.419 436.163,129.459 436.141,129.831 432.369 L 130.103 429.600 133.225 429.600 C 135.846 429.600,136.382 429.488,136.569 428.900 C 136.691 428.515,137.553 427.834,138.483 427.387 C 139.697 426.802,140.398 426.107,140.971 424.918 L 141.769 423.262 145.491 422.983 C 149.763 422.663,149.653 422.757,149.907 419.204 L 150.099 416.517 154.624 416.275 C 161.420 415.910,162.800 415.049,162.800 411.174 L 162.800 409.600 166.010 409.600 C 169.736 409.600,170.000 409.320,170.000 405.374 L 170.000 403.200 172.700 403.178 C 181.312 403.110,182.672 402.546,183.054 398.889 L 183.314 396.400 186.243 396.400 C 189.757 396.400,190.000 396.130,190.000 392.226 L 190.000 389.600 195.724 389.600 C 202.751 389.600,202.890 389.530,203.122 385.889 L 203.288 383.281 206.461 383.137 C 208.206 383.057,209.761 382.799,209.917 382.562 C 210.073 382.325,210.822 381.918,211.583 381.657 C 213.480 381.008,214.734 379.732,215.209 377.967 L 215.609 376.482 219.019 376.341 C 223.058 376.174,223.185 376.052,223.194 372.358 L 223.200 369.716 228.133 369.503 C 233.847 369.257,235.399 368.708,235.767 366.807 C 235.895 366.143,236.099 365.085,236.219 364.456 C 236.433 363.344,236.522 363.306,239.480 363.083 C 243.064 362.811,243.186 362.682,243.194 359.150 L 243.200 356.501 249.010 356.326 C 255.884 356.119,256.002 356.055,256.358 352.327 L 256.600 349.800 259.800 349.600 L 263.000 349.400 263.116 346.358 L 263.232 343.315 269.290 343.100 C 276.388 342.849,276.400 342.842,276.400 338.924 L 276.400 336.400 279.576 336.400 C 281.323 336.400,282.854 336.236,282.978 336.035 C 283.103 335.834,283.923 335.548,284.801 335.400 C 286.985 335.031,288.056 334.049,288.783 331.749 L 289.400 329.800 292.382 329.681 C 295.976 329.537,296.398 329.240,296.405 326.851 C 296.416 323.279,296.326 323.351,301.131 323.065 C 308.270 322.641,309.600 321.816,309.600 317.813 L 309.600 316.400 312.500 316.394 C 316.180 316.386,316.226 316.348,316.560 313.013 C 316.910 309.527,316.282 309.867,322.853 309.611 C 329.002 309.372,329.600 309.121,329.600 306.774 C 329.600 303.525,329.875 303.200,332.617 303.200 C 335.873 303.200,336.327 302.995,336.628 301.393 C 336.777 300.595,337.580 299.329,338.632 298.231 L 340.387 296.400 343.967 296.400 C 349.218 296.400,349.489 296.236,349.821 292.862 L 350.095 290.085 353.147 289.803 C 354.826 289.647,356.380 289.382,356.600 289.212 C 356.820 289.043,357.695 288.779,358.543 288.626 C 360.461 288.280,361.858 286.826,362.196 284.825 L 362.453 283.300 365.641 283.115 C 369.527 282.890,369.734 282.701,369.932 279.193 L 370.090 276.400 373.545 276.371 C 381.055 276.307,382.303 275.769,382.842 272.363 C 383.244 269.816,383.526 269.614,386.686 269.606 C 389.675 269.599,390.000 269.209,390.000 265.626 L 390.000 263.200 395.000 263.200 L 400.000 263.200 400.000 253.200 L 400.000 243.200 395.000 243.200 L 390.000 243.200 390.000 240.676 C 390.000 237.318,389.621 236.911,386.315 236.719 C 383.121 236.535,383.252 236.636,382.839 234.020 C 382.303 230.633,381.046 230.093,373.545 230.029 L 370.090 230.000 369.932 227.207 C 369.734 223.699,369.527 223.510,365.641 223.285 L 362.453 223.100 362.196 221.575 C 361.858 219.574,360.461 218.120,358.543 217.774 C 357.695 217.621,356.820 217.357,356.600 217.188 C 356.380 217.018,354.829 216.753,353.154 216.598 L 350.108 216.316 349.862 213.686 C 349.543 210.262,349.486 210.224,344.538 210.062 L 340.314 209.925 338.596 208.131 C 337.574 207.064,336.776 205.799,336.628 205.007 C 336.327 203.405,335.873 203.200,332.617 203.200 C 329.875 203.200,329.600 202.875,329.600 199.626 C 329.600 197.279,329.002 197.028,322.853 196.789 C 316.282 196.533,316.910 196.873,316.560 193.387 C 316.227 190.058,316.174 190.014,312.556 190.006 L 309.712 190.000 309.478 187.733 C 309.106 184.133,307.130 183.252,299.347 183.212 C 296.569 183.198,296.416 183.008,296.405 179.549 C 296.398 177.160,295.976 176.863,292.382 176.719 L 289.400 176.600 288.783 174.651 C 288.056 172.351,286.985 171.369,284.801 171.000 C 283.923 170.852,283.103 170.566,282.978 170.365 C 282.854 170.164,281.323 170.000,279.576 170.000 L 276.400 170.000 276.400 167.476 C 276.400 163.558,276.388 163.551,269.290 163.300 L 263.232 163.085 263.116 160.042 L 263.000 157.000 259.800 156.800 L 256.600 156.600 256.358 154.073 C 256.002 150.345,255.884 150.281,249.010 150.074 L 243.200 149.899 243.194 147.250 C 243.186 143.718,243.064 143.589,239.480 143.317 C 236.522 143.094,236.433 143.056,236.219 141.944 C 236.099 141.315,235.895 140.257,235.767 139.593 C 235.399 137.692,233.847 137.143,228.133 136.897 L 223.200 136.684 223.194 134.042 C 223.185 130.405,223.052 130.272,219.139 130.016 L 215.830 129.800 215.555 128.449 C 214.923 125.341,210.939 123.211,205.747 123.203 L 203.293 123.200 203.125 120.552 C 202.890 116.864,202.764 116.800,195.724 116.800 L 190.000 116.800 190.000 114.174 C 190.000 110.270,189.757 110.000,186.243 110.000 L 183.314 110.000 183.054 107.511 C 182.664 103.778,181.562 103.322,172.700 103.228 L 170.000 103.200 170.000 101.026 C 170.000 97.080,169.736 96.800,166.010 96.800 L 162.800 96.800 162.800 95.226 C 162.800 91.351,161.420 90.490,154.624 90.125 L 150.099 89.883 149.907 87.196 C 149.653 83.643,149.763 83.737,145.491 83.417 L 141.769 83.138 140.971 81.482 C 140.398 80.293,139.697 79.598,138.483 79.013 C 137.553 78.566,136.691 77.885,136.569 77.500 C 136.382 76.912,135.846 76.800,133.225 76.800 L 130.103 76.800 129.831 74.031 C 129.459 70.259,129.419 70.237,122.597 70.061 L 116.907 69.914 116.642 67.066 C 116.316 63.557,116.344 63.584,112.743 63.263 L 109.800 63.000 109.596 60.710 C 109.283 57.193,109.007 57.044,102.442 56.864 L 96.897 56.712 96.648 54.900 C 96.512 53.904,96.400 52.580,96.400 51.958 C 96.400 50.456,95.444 50.000,92.291 50.000 L 89.729 50.000 89.365 47.738 C 88.841 44.493,88.138 44.081,82.188 43.542 C 75.905 42.972,76.400 43.256,76.400 40.227 C 76.400 37.026,76.091 36.800,71.706 36.800 L 68.559 36.800 67.683 34.997 C 67.019 33.629,66.371 32.981,65.003 32.317 C 64.012 31.835,63.200 31.226,63.200 30.963 C 63.200 30.238,62.205 30.000,59.167 30.000 L 56.400 30.000 56.400 27.600 C 56.400 23.910,56.119 23.749,49.044 23.395 L 43.200 23.103 43.200 20.432 C 43.200 17.042,42.941 16.800,39.320 16.800 L 36.400 16.800 36.400 15.026 C 36.400 10.900,35.780 10.510,28.650 10.152 L 23.200 9.878 23.200 7.188 C 23.200 3.903,23.061 3.774,19.100 3.414 L 16.000 3.132 16.000 1.566 L 16.000 0.000 8.000 0.000 L 0.000 0.000 0.000 253.200 " stroke="none" fill="#ffffff" fill-rule="evenodd"></path><path id="path2" d="M0.000 253.200 L 0.000 506.400 8.000 506.400 L 16.000 506.400 16.000 504.834 L 16.000 503.268 19.100 502.986 C 23.061 502.626,23.200 502.497,23.200 499.212 L 23.200 496.522 28.650 496.248 C 35.780 495.890,36.400 495.500,36.400 491.374 L 36.400 489.600 39.320 489.600 C 42.941 489.600,43.200 489.358,43.200 485.968 L 43.200 483.297 49.044 483.005 C 56.119 482.651,56.400 482.490,56.400 478.800 L 56.400 476.400 59.167 476.400 C 62.205 476.400,63.200 476.162,63.200 475.437 C 63.200 475.174,64.012 474.565,65.003 474.083 C 66.371 473.419,67.019 472.771,67.683 471.403 L 68.559 469.600 71.803 469.600 C 75.987 469.600,76.340 469.329,76.486 466.000 L 76.600 463.400 79.841 463.131 C 87.767 462.474,88.918 461.904,89.400 458.402 L 89.675 456.400 92.264 456.400 C 95.444 456.400,96.400 455.947,96.400 454.442 C 96.400 453.820,96.512 452.496,96.648 451.500 L 96.897 449.688 102.442 449.536 C 109.007 449.356,109.283 449.207,109.596 445.690 L 109.800 443.400 112.743 443.137 C 116.344 442.816,116.316 442.843,116.642 439.334 L 116.907 436.486 122.597 436.339 C 129.419 436.163,129.459 436.141,129.831 432.369 L 130.103 429.600 133.225 429.600 C 135.846 429.600,136.382 429.488,136.569 428.900 C 136.691 428.515,137.553 427.834,138.483 427.387 C 139.697 426.802,140.398 426.107,140.971 424.918 L 141.769 423.262 145.491 422.983 C 149.763 422.663,149.653 422.757,149.907 419.204 L 150.099 416.517 154.624 416.275 C 161.420 415.910,162.800 415.049,162.800 411.174 L 162.800 409.600 166.010 409.600 C 169.736 409.600,170.000 409.320,170.000 405.374 L 170.000 403.200 172.700 403.178 C 181.312 403.110,182.672 402.546,183.054 398.889 L 183.314 396.400 186.243 396.400 C 189.757 396.400,190.000 396.130,190.000 392.226 L 190.000 389.600 195.724 389.600 C 202.751 389.600,202.890 389.530,203.122 385.889 L 203.288 383.281 206.461 383.137 C 208.206 383.057,209.761 382.799,209.917 382.562 C 210.073 382.325,210.822 381.918,211.583 381.657 C 213.480 381.008,214.734 379.732,215.209 377.967 L 215.609 376.482 219.019 376.341 C 223.058 376.174,223.185 376.052,223.194 372.358 L 223.200 369.716 228.133 369.503 C 233.847 369.257,235.399 368.708,235.767 366.807 C 235.895 366.143,236.099 365.085,236.219 364.456 C 236.433 363.344,236.522 363.306,239.480 363.083 C 243.064 362.811,243.186 362.682,243.194 359.150 L 243.200 356.501 249.010 356.326 C 255.884 356.119,256.002 356.055,256.358 352.327 L 256.600 349.800 259.800 349.600 L 263.000 349.400 263.116 346.358 L 263.232 343.315 269.290 343.100 C 276.388 342.849,276.400 342.842,276.400 338.924 L 276.400 336.400 279.576 336.400 C 281.323 336.400,282.854 336.236,282.978 336.035 C 283.103 335.834,283.923 335.548,284.801 335.400 C 286.985 335.031,288.056 334.049,288.783 331.749 L 289.400 329.800 292.382 329.681 C 295.976 329.537,296.398 329.240,296.405 326.851 C 296.416 323.279,296.326 323.351,301.131 323.065 C 308.270 322.641,309.600 321.816,309.600 317.813 L 309.600 316.400 312.500 316.394 C 316.180 316.386,316.226 316.348,316.560 313.013 C 316.910 309.527,316.282 309.867,322.853 309.611 C 329.002 309.372,329.600 309.121,329.600 306.774 C 329.600 303.525,329.875 303.200,332.617 303.200 C 335.873 303.200,336.327 302.995,336.628 301.393 C 336.777 300.595,337.580 299.329,338.632 298.231 L 340.387 296.400 343.967 296.400 C 349.218 296.400,349.489 296.236,349.821 292.862 L 350.095 290.085 353.147 289.803 C 354.826 289.647,356.380 289.382,356.600 289.212 C 356.820 289.043,357.695 288.779,358.543 288.626 C 360.461 288.280,361.858 286.826,362.196 284.825 L 362.453 283.300 365.641 283.115 C 369.527 282.890,369.734 282.701,369.932 279.193 L 370.090 276.400 373.545 276.371 C 381.055 276.307,382.303 275.769,382.842 272.363 C 383.244 269.816,383.526 269.614,386.686 269.606 C 389.675 269.599,390.000 269.209,390.000 265.626 L 390.000 263.200 395.000 263.200 L 400.000 263.200 400.000 253.200 L 400.000 243.200 395.000 243.200 L 390.000 243.200 390.000 240.676 C 390.000 237.318,389.621 236.911,386.315 236.719 C 383.121 236.535,383.252 236.636,382.839 234.020 C 382.303 230.633,381.046 230.093,373.545 230.029 L 370.090 230.000 369.932 227.207 C 369.734 223.699,369.527 223.510,365.641 223.285 L 362.453 223.100 362.196 221.575 C 361.858 219.574,360.461 218.120,358.543 217.774 C 357.695 217.621,356.820 217.357,356.600 217.188 C 356.380 217.018,354.829 216.753,353.154 216.598 L 350.108 216.316 349.862 213.686 C 349.543 210.262,349.486 210.224,344.538 210.062 L 340.314 209.925 338.596 208.131 C 337.574 207.064,336.776 205.799,336.628 205.007 C 336.327 203.405,335.873 203.200,332.617 203.200 C 329.875 203.200,329.600 202.875,329.600 199.626 C 329.600 197.279,329.002 197.028,322.853 196.789 C 316.282 196.533,316.910 196.873,316.560 193.387 C 316.227 190.058,316.174 190.014,312.556 190.006 L 309.712 190.000 309.478 187.733 C 309.106 184.133,307.130 183.252,299.347 183.212 C 296.569 183.198,296.416 183.008,296.405 179.549 C 296.398 177.160,295.976 176.863,292.382 176.719 L 289.400 176.600 288.783 174.651 C 288.056 172.351,286.985 171.369,284.801 171.000 C 283.923 170.852,283.103 170.566,282.978 170.365 C 282.854 170.164,281.323 170.000,279.576 170.000 L 276.400 170.000 276.400 167.476 C 276.400 163.558,276.388 163.551,269.290 163.300 L 263.232 163.085 263.116 160.042 L 263.000 157.000 259.800 156.800 L 256.600 156.600 256.358 154.073 C 256.002 150.345,255.884 150.281,249.010 150.074 L 243.200 149.899 243.194 147.250 C 243.186 143.718,243.064 143.589,239.480 143.317 C 236.522 143.094,236.433 143.056,236.219 141.944 C 236.099 141.315,235.895 140.257,235.767 139.593 C 235.399 137.692,233.847 137.143,228.133 136.897 L 223.200 136.684 223.194 134.042 C 223.185 130.405,223.052 130.272,219.139 130.016 L 215.830 129.800 215.555 128.449 C 214.923 125.341,210.939 123.211,205.747 123.203 L 203.293 123.200 203.125 120.552 C 202.890 116.864,202.764 116.800,195.724 116.800 L 190.000 116.800 190.000 114.174 C 190.000 110.270,189.757 110.000,186.243 110.000 L 183.314 110.000 183.054 107.511 C 182.664 103.778,181.562 103.322,172.700 103.228 L 170.000 103.200 170.000 101.026 C 170.000 97.080,169.736 96.800,166.010 96.800 L 162.800 96.800 162.800 95.226 C 162.800 91.351,161.420 90.490,154.624 90.125 L 150.099 89.883 149.907 87.196 C 149.653 83.643,149.763 83.737,145.491 83.417 L 141.769 83.138 140.971 81.482 C 140.398 80.293,139.697 79.598,138.483 79.013 C 137.553 78.566,136.691 77.885,136.569 77.500 C 136.382 76.912,135.846 76.800,133.225 76.800 L 130.103 76.800 129.831 74.031 C 129.459 70.259,129.419 70.237,122.597 70.061 L 116.907 69.914 116.642 67.066 C 116.316 63.557,116.344 63.584,112.743 63.263 L 109.800 63.000 109.596 60.710 C 109.283 57.193,109.007 57.044,102.442 56.864 L 96.897 56.712 96.648 54.900 C 96.512 53.904,96.400 52.580,96.400 51.958 C 96.400 50.456,95.444 50.000,92.291 50.000 L 89.729 50.000 89.365 47.738 C 88.841 44.493,88.138 44.081,82.188 43.542 C 75.905 42.972,76.400 43.256,76.400 40.227 C 76.400 37.026,76.091 36.800,71.706 36.800 L 68.559 36.800 67.683 34.997 C 67.019 33.629,66.371 32.981,65.003 32.317 C 64.012 31.835,63.200 31.226,63.200 30.963 C 63.200 30.238,62.205 30.000,59.167 30.000 L 56.400 30.000 56.400 27.600 C 56.400 23.910,56.119 23.749,49.044 23.395 L 43.200 23.103 43.200 20.432 C 43.200 17.042,42.941 16.800,39.320 16.800 L 36.400 16.800 36.400 15.026 C 36.400 10.900,35.780 10.510,28.650 10.152 L 23.200 9.878 23.200 7.188 C 23.200 3.903,23.061 3.774,19.100 3.414 L 16.000 3.132 16.000 1.566 L 16.000 0.000 8.000 0.000 L 0.000 0.000 0.000 253.200 " stroke="none" fill="#ffffff" fill-rule="evenodd"></path><path id="path3" d="M0.000 253.200 L 0.000 506.400 8.000 506.400 L 16.000 506.400 16.000 504.834 L 16.000 503.268 19.100 502.986 C 23.061 502.626,23.200 502.497,23.200 499.212 L 23.200 496.522 28.650 496.248 C 35.780 495.890,36.400 495.500,36.400 491.374 L 36.400 489.600 39.320 489.600 C 42.941 489.600,43.200 489.358,43.200 485.968 L 43.200 483.297 49.044 483.005 C 56.119 482.651,56.400 482.490,56.400 478.800 L 56.400 476.400 59.167 476.400 C 62.205 476.400,63.200 476.162,63.200 475.437 C 63.200 475.174,64.012 474.565,65.003 474.083 C 66.371 473.419,67.019 472.771,67.683 471.403 L 68.559 469.600 71.803 469.600 C 75.987 469.600,76.340 469.329,76.486 466.000 L 76.600 463.400 79.841 463.131 C 87.767 462.474,88.918 461.904,89.400 458.402 L 89.675 456.400 92.264 456.400 C 95.444 456.400,96.400 455.947,96.400 454.442 C 96.400 453.820,96.512 452.496,96.648 451.500 L 96.897 449.688 102.442 449.536 C 109.007 449.356,109.283 449.207,109.596 445.690 L 109.800 443.400 112.743 443.137 C 116.344 442.816,116.316 442.843,116.642 439.334 L 116.907 436.486 122.597 436.339 C 129.419 436.163,129.459 436.141,129.831 432.369 L 130.103 429.600 133.225 429.600 C 135.846 429.600,136.382 429.488,136.569 428.900 C 136.691 428.515,137.553 427.834,138.483 427.387 C 139.697 426.802,140.398 426.107,140.971 424.918 L 141.769 423.262 145.491 422.983 C 149.763 422.663,149.653 422.757,149.907 419.204 L 150.099 416.517 154.624 416.275 C 161.420 415.910,162.800 415.049,162.800 411.174 L 162.800 409.600 166.010 409.600 C 169.736 409.600,170.000 409.320,170.000 405.374 L 170.000 403.200 172.700 403.178 C 181.312 403.110,182.672 402.546,183.054 398.889 L 183.314 396.400 186.243 396.400 C 189.757 396.400,190.000 396.130,190.000 392.226 L 190.000 389.600 195.724 389.600 C 202.751 389.600,202.890 389.530,203.122 385.889 L 203.288 383.281 206.461 383.137 C 208.206 383.057,209.761 382.799,209.917 382.562 C 210.073 382.325,210.822 381.918,211.583 381.657 C 213.480 381.008,214.734 379.732,215.209 377.967 L 215.609 376.482 219.019 376.341 C 223.058 376.174,223.185 376.052,223.194 372.358 L 223.200 369.716 228.133 369.503 C 233.847 369.257,235.399 368.708,235.767 366.807 C 235.895 366.143,236.099 365.085,236.219 364.456 C 236.433 363.344,236.522 363.306,239.480 363.083 C 243.064 362.811,243.186 362.682,243.194 359.150 L 243.200 356.501 249.010 356.326 C 255.884 356.119,256.002 356.055,256.358 352.327 L 256.600 349.800 259.800 349.600 L 263.000 349.400 263.116 346.358 L 263.232 343.315 269.290 343.100 C 276.388 342.849,276.400 342.842,276.400 338.924 L 276.400 336.400 279.576 336.400 C 281.323 336.400,282.854 336.236,282.978 336.035 C 283.103 335.834,283.923 335.548,284.801 335.400 C 286.985 335.031,288.056 334.049,288.783 331.749 L 289.400 329.800 292.382 329.681 C 295.976 329.537,296.398 329.240,296.405 326.851 C 296.416 323.279,296.326 323.351,301.131 323.065 C 308.270 322.641,309.600 321.816,309.600 317.813 L 309.600 316.400 312.500 316.394 C 316.180 316.386,316.226 316.348,316.560 313.013 C 316.910 309.527,316.282 309.867,322.853 309.611 C 329.002 309.372,329.600 309.121,329.600 306.774 C 329.600 303.525,329.875 303.200,332.617 303.200 C 335.873 303.200,336.327 302.995,336.628 301.393 C 336.777 300.595,337.580 299.329,338.632 298.231 L 340.387 296.400 343.967 296.400 C 349.218 296.400,349.489 296.236,349.821 292.862 L 350.095 290.085 353.147 289.803 C 354.826 289.647,356.380 289.382,356.600 289.212 C 356.820 289.043,357.695 288.779,358.543 288.626 C 360.461 288.280,361.858 286.826,362.196 284.825 L 362.453 283.300 365.641 283.115 C 369.527 282.890,369.734 282.701,369.932 279.193 L 370.090 276.400 373.545 276.371 C 381.055 276.307,382.303 275.769,382.842 272.363 C 383.244 269.816,383.526 269.614,386.686 269.606 C 389.675 269.599,390.000 269.209,390.000 265.626 L 390.000 263.200 395.000 263.200 L 400.000 263.200 400.000 253.200 L 400.000 243.200 395.000 243.200 L 390.000 243.200 390.000 240.676 C 390.000 237.318,389.621 236.911,386.315 236.719 C 383.121 236.535,383.252 236.636,382.839 234.020 C 382.303 230.633,381.046 230.093,373.545 230.029 L 370.090 230.000 369.932 227.207 C 369.734 223.699,369.527 223.510,365.641 223.285 L 362.453 223.100 362.196 221.575 C 361.858 219.574,360.461 218.120,358.543 217.774 C 357.695 217.621,356.820 217.357,356.600 217.188 C 356.380 217.018,354.829 216.753,353.154 216.598 L 350.108 216.316 349.862 213.686 C 349.543 210.262,349.486 210.224,344.538 210.062 L 340.314 209.925 338.596 208.131 C 337.574 207.064,336.776 205.799,336.628 205.007 C 336.327 203.405,335.873 203.200,332.617 203.200 C 329.875 203.200,329.600 202.875,329.600 199.626 C 329.600 197.279,329.002 197.028,322.853 196.789 C 316.282 196.533,316.910 196.873,316.560 193.387 C 316.227 190.058,316.174 190.014,312.556 190.006 L 309.712 190.000 309.478 187.733 C 309.106 184.133,307.130 183.252,299.347 183.212 C 296.569 183.198,296.416 183.008,296.405 179.549 C 296.398 177.160,295.976 176.863,292.382 176.719 L 289.400 176.600 288.783 174.651 C 288.056 172.351,286.985 171.369,284.801 171.000 C 283.923 170.852,283.103 170.566,282.978 170.365 C 282.854 170.164,281.323 170.000,279.576 170.000 L 276.400 170.000 276.400 167.476 C 276.400 163.558,276.388 163.551,269.290 163.300 L 263.232 163.085 263.116 160.042 L 263.000 157.000 259.800 156.800 L 256.600 156.600 256.358 154.073 C 256.002 150.345,255.884 150.281,249.010 150.074 L 243.200 149.899 243.194 147.250 C 243.186 143.718,243.064 143.589,239.480 143.317 C 236.522 143.094,236.433 143.056,236.219 141.944 C 236.099 141.315,235.895 140.257,235.767 139.593 C 235.399 137.692,233.847 137.143,228.133 136.897 L 223.200 136.684 223.194 134.042 C 223.185 130.405,223.052 130.272,219.139 130.016 L 215.830 129.800 215.555 128.449 C 214.923 125.341,210.939 123.211,205.747 123.203 L 203.293 123.200 203.125 120.552 C 202.890 116.864,202.764 116.800,195.724 116.800 L 190.000 116.800 190.000 114.174 C 190.000 110.270,189.757 110.000,186.243 110.000 L 183.314 110.000 183.054 107.511 C 182.664 103.778,181.562 103.322,172.700 103.228 L 170.000 103.200 170.000 101.026 C 170.000 97.080,169.736 96.800,166.010 96.800 L 162.800 96.800 162.800 95.226 C 162.800 91.351,161.420 90.490,154.624 90.125 L 150.099 89.883 149.907 87.196 C 149.653 83.643,149.763 83.737,145.491 83.417 L 141.769 83.138 140.971 81.482 C 140.398 80.293,139.697 79.598,138.483 79.013 C 137.553 78.566,136.691 77.885,136.569 77.500 C 136.382 76.912,135.846 76.800,133.225 76.800 L 130.103 76.800 129.831 74.031 C 129.459 70.259,129.419 70.237,122.597 70.061 L 116.907 69.914 116.642 67.066 C 116.316 63.557,116.344 63.584,112.743 63.263 L 109.800 63.000 109.596 60.710 C 109.283 57.193,109.007 57.044,102.442 56.864 L 96.897 56.712 96.648 54.900 C 96.512 53.904,96.400 52.580,96.400 51.958 C 96.400 50.456,95.444 50.000,92.291 50.000 L 89.729 50.000 89.365 47.738 C 88.841 44.493,88.138 44.081,82.188 43.542 C 75.905 42.972,76.400 43.256,76.400 40.227 C 76.400 37.026,76.091 36.800,71.706 36.800 L 68.559 36.800 67.683 34.997 C 67.019 33.629,66.371 32.981,65.003 32.317 C 64.012 31.835,63.200 31.226,63.200 30.963 C 63.200 30.238,62.205 30.000,59.167 30.000 L 56.400 30.000 56.400 27.600 C 56.400 23.910,56.119 23.749,49.044 23.395 L 43.200 23.103 43.200 20.432 C 43.200 17.042,42.941 16.800,39.320 16.800 L 36.400 16.800 36.400 15.026 C 36.400 10.900,35.780 10.510,28.650 10.152 L 23.200 9.878 23.200 7.188 C 23.200 3.903,23.061 3.774,19.100 3.414 L 16.000 3.132 16.000 1.566 L 16.000 0.000 8.000 0.000 L 0.000 0.000 0.000 253.200 " stroke="none" fill="#ffffff" fill-rule="evenodd"></path><path id="path4" d="M0.000 253.200 L 0.000 506.400 8.000 506.400 L 16.000 506.400 16.000 504.834 L 16.000 503.268 19.100 502.986 C 23.061 502.626,23.200 502.497,23.200 499.212 L 23.200 496.522 28.650 496.248 C 35.780 495.890,36.400 495.500,36.400 491.374 L 36.400 489.600 39.320 489.600 C 42.941 489.600,43.200 489.358,43.200 485.968 L 43.200 483.297 49.044 483.005 C 56.119 482.651,56.400 482.490,56.400 478.800 L 56.400 476.400 59.167 476.400 C 62.205 476.400,63.200 476.162,63.200 475.437 C 63.200 475.174,64.012 474.565,65.003 474.083 C 66.371 473.419,67.019 472.771,67.683 471.403 L 68.559 469.600 71.803 469.600 C 75.987 469.600,76.340 469.329,76.486 466.000 L 76.600 463.400 79.841 463.131 C 87.767 462.474,88.918 461.904,89.400 458.402 L 89.675 456.400 92.264 456.400 C 95.444 456.400,96.400 455.947,96.400 454.442 C 96.400 453.820,96.512 452.496,96.648 451.500 L 96.897 449.688 102.442 449.536 C 109.007 449.356,109.283 449.207,109.596 445.690 L 109.800 443.400 112.743 443.137 C 116.344 442.816,116.316 442.843,116.642 439.334 L 116.907 436.486 122.597 436.339 C 129.419 436.163,129.459 436.141,129.831 432.369 L 130.103 429.600 133.225 429.600 C 135.846 429.600,136.382 429.488,136.569 428.900 C 136.691 428.515,137.553 427.834,138.483 427.387 C 139.697 426.802,140.398 426.107,140.971 424.918 L 141.769 423.262 145.491 422.983 C 149.763 422.663,149.653 422.757,149.907 419.204 L 150.099 416.517 154.624 416.275 C 161.420 415.910,162.800 415.049,162.800 411.174 L 162.800 409.600 166.010 409.600 C 169.736 409.600,170.000 409.320,170.000 405.374 L 170.000 403.200 172.700 403.178 C 181.312 403.110,182.672 402.546,183.054 398.889 L 183.314 396.400 186.243 396.400 C 189.757 396.400,190.000 396.130,190.000 392.226 L 190.000 389.600 195.724 389.600 C 202.751 389.600,202.890 389.530,203.122 385.889 L 203.288 383.281 206.461 383.137 C 208.206 383.057,209.761 382.799,209.917 382.562 C 210.073 382.325,210.822 381.918,211.583 381.657 C 213.480 381.008,214.734 379.732,215.209 377.967 L 215.609 376.482 219.019 376.341 C 223.058 376.174,223.185 376.052,223.194 372.358 L 223.200 369.716 228.133 369.503 C 233.847 369.257,235.399 368.708,235.767 366.807 C 235.895 366.143,236.099 365.085,236.219 364.456 C 236.433 363.344,236.522 363.306,239.480 363.083 C 243.064 362.811,243.186 362.682,243.194 359.150 L 243.200 356.501 249.010 356.326 C 255.884 356.119,256.002 356.055,256.358 352.327 L 256.600 349.800 259.800 349.600 L 263.000 349.400 263.116 346.358 L 263.232 343.315 269.290 343.100 C 276.388 342.849,276.400 342.842,276.400 338.924 L 276.400 336.400 279.576 336.400 C 281.323 336.400,282.854 336.236,282.978 336.035 C 283.103 335.834,283.923 335.548,284.801 335.400 C 286.985 335.031,288.056 334.049,288.783 331.749 L 289.400 329.800 292.382 329.681 C 295.976 329.537,296.398 329.240,296.405 326.851 C 296.416 323.279,296.326 323.351,301.131 323.065 C 308.270 322.641,309.600 321.816,309.600 317.813 L 309.600 316.400 312.500 316.394 C 316.180 316.386,316.226 316.348,316.560 313.013 C 316.910 309.527,316.282 309.867,322.853 309.611 C 329.002 309.372,329.600 309.121,329.600 306.774 C 329.600 303.525,329.875 303.200,332.617 303.200 C 335.873 303.200,336.327 302.995,336.628 301.393 C 336.777 300.595,337.580 299.329,338.632 298.231 L 340.387 296.400 343.967 296.400 C 349.218 296.400,349.489 296.236,349.821 292.862 L 350.095 290.085 353.147 289.803 C 354.826 289.647,356.380 289.382,356.600 289.212 C 356.820 289.043,357.695 288.779,358.543 288.626 C 360.461 288.280,361.858 286.826,362.196 284.825 L 362.453 283.300 365.641 283.115 C 369.527 282.890,369.734 282.701,369.932 279.193 L 370.090 276.400 373.545 276.371 C 381.055 276.307,382.303 275.769,382.842 272.363 C 383.244 269.816,383.526 269.614,386.686 269.606 C 389.675 269.599,390.000 269.209,390.000 265.626 L 390.000 263.200 395.000 263.200 L 400.000 263.200 400.000 253.200 L 400.000 243.200 395.000 243.200 L 390.000 243.200 390.000 240.676 C 390.000 237.318,389.621 236.911,386.315 236.719 C 383.121 236.535,383.252 236.636,382.839 234.020 C 382.303 230.633,381.046 230.093,373.545 230.029 L 370.090 230.000 369.932 227.207 C 369.734 223.699,369.527 223.510,365.641 223.285 L 362.453 223.100 362.196 221.575 C 361.858 219.574,360.461 218.120,358.543 217.774 C 357.695 217.621,356.820 217.357,356.600 217.188 C 356.380 217.018,354.829 216.753,353.154 216.598 L 350.108 216.316 349.862 213.686 C 349.543 210.262,349.486 210.224,344.538 210.062 L 340.314 209.925 338.596 208.131 C 337.574 207.064,336.776 205.799,336.628 205.007 C 336.327 203.405,335.873 203.200,332.617 203.200 C 329.875 203.200,329.600 202.875,329.600 199.626 C 329.600 197.279,329.002 197.028,322.853 196.789 C 316.282 196.533,316.910 196.873,316.560 193.387 C 316.227 190.058,316.174 190.014,312.556 190.006 L 309.712 190.000 309.478 187.733 C 309.106 184.133,307.130 183.252,299.347 183.212 C 296.569 183.198,296.416 183.008,296.405 179.549 C 296.398 177.160,295.976 176.863,292.382 176.719 L 289.400 176.600 288.783 174.651 C 288.056 172.351,286.985 171.369,284.801 171.000 C 283.923 170.852,283.103 170.566,282.978 170.365 C 282.854 170.164,281.323 170.000,279.576 170.000 L 276.400 170.000 276.400 167.476 C 276.400 163.558,276.388 163.551,269.290 163.300 L 263.232 163.085 263.116 160.042 L 263.000 157.000 259.800 156.800 L 256.600 156.600 256.358 154.073 C 256.002 150.345,255.884 150.281,249.010 150.074 L 243.200 149.899 243.194 147.250 C 243.186 143.718,243.064 143.589,239.480 143.317 C 236.522 143.094,236.433 143.056,236.219 141.944 C 236.099 141.315,235.895 140.257,235.767 139.593 C 235.399 137.692,233.847 137.143,228.133 136.897 L 223.200 136.684 223.194 134.042 C 223.185 130.405,223.052 130.272,219.139 130.016 L 215.830 129.800 215.555 128.449 C 214.923 125.341,210.939 123.211,205.747 123.203 L 203.293 123.200 203.125 120.552 C 202.890 116.864,202.764 116.800,195.724 116.800 L 190.000 116.800 190.000 114.174 C 190.000 110.270,189.757 110.000,186.243 110.000 L 183.314 110.000 183.054 107.511 C 182.664 103.778,181.562 103.322,172.700 103.228 L 170.000 103.200 170.000 101.026 C 170.000 97.080,169.736 96.800,166.010 96.800 L 162.800 96.800 162.800 95.226 C 162.800 91.351,161.420 90.490,154.624 90.125 L 150.099 89.883 149.907 87.196 C 149.653 83.643,149.763 83.737,145.491 83.417 L 141.769 83.138 140.971 81.482 C 140.398 80.293,139.697 79.598,138.483 79.013 C 137.553 78.566,136.691 77.885,136.569 77.500 C 136.382 76.912,135.846 76.800,133.225 76.800 L 130.103 76.800 129.831 74.031 C 129.459 70.259,129.419 70.237,122.597 70.061 L 116.907 69.914 116.642 67.066 C 116.316 63.557,116.344 63.584,112.743 63.263 L 109.800 63.000 109.596 60.710 C 109.283 57.193,109.007 57.044,102.442 56.864 L 96.897 56.712 96.648 54.900 C 96.512 53.904,96.400 52.580,96.400 51.958 C 96.400 50.456,95.444 50.000,92.291 50.000 L 89.729 50.000 89.365 47.738 C 88.841 44.493,88.138 44.081,82.188 43.542 C 75.905 42.972,76.400 43.256,76.400 40.227 C 76.400 37.026,76.091 36.800,71.706 36.800 L 68.559 36.800 67.683 34.997 C 67.019 33.629,66.371 32.981,65.003 32.317 C 64.012 31.835,63.200 31.226,63.200 30.963 C 63.200 30.238,62.205 30.000,59.167 30.000 L 56.400 30.000 56.400 27.600 C 56.400 23.910,56.119 23.749,49.044 23.395 L 43.200 23.103 43.200 20.432 C 43.200 17.042,42.941 16.800,39.320 16.800 L 36.400 16.800 36.400 15.026 C 36.400 10.900,35.780 10.510,28.650 10.152 L 23.200 9.878 23.200 7.188 C 23.200 3.903,23.061 3.774,19.100 3.414 L 16.000 3.132 16.000 1.566 L 16.000 0.000 8.000 0.000 L 0.000 0.000 0.000 253.200 " stroke="none" fill="#ffffff" fill-rule="evenodd"></path></g></svg>