<?xml version="1.0" encoding="UTF-8"?>
<svg width="35px" height="26px" viewBox="0 0 35 26" version="1.1" xmlns="http://www.w3.org/2000/svg" xmlns:xlink="http://www.w3.org/1999/xlink">
    <!-- Generator: sketchtool 51.3 (57544) - http://www.bohemiancoding.com/sketch -->
    <title>81B5BA3C-89C4-4570-B4ED-3DEE944288C2</title>
    <desc>Created with sketchtool.</desc>
    <defs></defs>
    <g id="Desktop" stroke="none" stroke-width="1" fill="none" fill-rule="evenodd">
        <g id="v2_Contact-Us" transform="translate(-528.000000, -624.000000)" fill="#D5AB52">
            <g id="Right---Send-Us-Message" transform="translate(526.000000, 624.000000)">
                <path d="M12.5864198,7.67213115 C13.1829972,7.67213115 13.6666667,8.05381091 13.6666667,8.52459016 C13.6666667,8.9954278 13.1829972,9.37704918 12.5864198,9.37704918 C11.9898423,9.37704918 11.5061728,8.9954278 11.5061728,8.52459016 C11.5061728,8.05381091 11.9898423,7.67213115 12.5864198,7.67213115 Z M19.5,7.67213115 C20.0965775,7.67213115 20.5802469,8.05381091 20.5802469,8.52459016 C20.5802469,8.9954278 20.0965775,9.37704918 19.5,9.37704918 C18.9034225,9.37704918 18.4197531,8.9954278 18.4197531,8.52459016 C18.4197531,8.05381091 18.9034225,7.67213115 19.5,7.67213115 Z M16.0432099,7.67213115 C16.6397873,7.67213115 17.1234568,8.05381091 17.1234568,8.52459016 C17.1234568,8.9954278 16.6397873,9.37704918 16.0432099,9.37704918 C15.4465584,9.37704918 14.962963,8.9954278 14.962963,8.52459016 C14.962963,8.05381091 15.4465584,7.67213115 16.0432099,7.67213115 Z M30.560219,25.6081077 C30.8109335,25.8632109 31.1690971,26 31.5344239,26 C31.6848526,26 31.8424446,25.975118 31.9928733,25.9254161 C32.5086288,25.7574 32.8381393,25.3468462 32.8381393,24.867929 L32.8381393,21.496349 L33.7622013,21.496349 C35.5458559,21.496349 37,20.2336472 37,18.6846774 L37,7.50019619 C37,5.9512886 35.5458559,4.68852459 33.7622013,4.68852459 C33.2750989,4.68852459 32.8811189,5.03065277 32.8811189,5.4474271 C32.8811189,5.87042194 33.2750989,6.21255012 33.7622013,6.21255012 C34.5788143,6.21255012 35.2449985,6.79105777 35.2449985,7.50019619 L35.2449985,18.6846774 C35.2449985,19.3938781 34.5788143,19.9723235 33.7622013,19.9723235 L31.9642202,19.9723235 C31.4771177,19.9723235 31.0831378,20.3144517 31.0831378,20.7374465 L31.0831378,23.8041591 L27.5301552,20.2398055 C27.3653999,20.0718517 27.1218487,19.978544 26.8639709,19.978544 L13.6835515,19.978544 C13.1964491,19.978544 12.8024691,20.3206722 12.8024691,20.743667 C12.8024691,21.1667241 13.1964491,21.5088523 13.6835515,21.5088523 L26.4628277,21.5088523 L30.560219,25.6081077 Z M12.0546059,15.3786381 C11.7981956,15.3786381 11.5631529,15.4713622 11.3922127,15.6383275 L7.85944919,19.1803279 L7.85944919,16.1328562 C7.85944919,15.712445 7.4677113,15.3724565 6.98338082,15.3724565 L5.20275404,15.3724565 C4.39078822,15.3724565 3.72839506,14.7975668 3.72839506,14.0929251 L3.72839506,2.98451118 C3.72839506,2.27980771 4.39078822,1.70491803 5.20275404,1.70491803 L26.8836657,1.70491803 C27.6956315,1.70491803 28.3580247,2.27980771 28.3580247,2.98451118 L28.3580247,14.0990449 C28.3580247,14.8038102 27.6956315,15.3786381 26.8836657,15.3786381 L12.0546059,15.3786381 Z M30.0864198,14.0002393 L30.0864198,2.81249252 C30.0864198,1.2631327 28.6422599,0 26.8708519,0 L5.21556781,0 C3.44415988,0 2,1.2631327 2,2.81249252 L2,14.0002393 C2,15.5496614 3.44415988,16.8127318 5.21556781,16.8127318 L6.13328518,16.8127318 L6.13328518,20.1852962 C6.13328518,20.807529 6.70952631,21.3114754 7.42804921,21.3114754 C7.79798179,21.3114754 8.15368619,21.1683619 8.40267928,20.9194687 L12.4648236,16.8065095 L26.877966,16.8065095 C28.6422599,16.8127318 30.0864198,15.5496614 30.0864198,14.0002393 Z" id="icon_message"></path>
            </g>
        </g>
    </g>
</svg>