<svg id="el_ItGyo1LFP" data-name="Layer 1" xmlns="http://www.w3.org/2000/svg" viewBox="0 0 184 80"><style>@-webkit-keyframes el_eTcx9zSnU3_yqRDPsv-H_Animation{0%{-webkit-transform: translate(144.4600067138672px, 40px) rotate(0deg) translate(-144.4600067138672px, -40px);transform: translate(144.4600067138672px, 40px) rotate(0deg) translate(-144.4600067138672px, -40px);}100%{-webkit-transform: translate(144.4600067138672px, 40px) rotate(180deg) translate(-144.4600067138672px, -40px);transform: translate(144.4600067138672px, 40px) rotate(180deg) translate(-144.4600067138672px, -40px);}}@keyframes el_eTcx9zSnU3_yqRDPsv-H_Animation{0%{-webkit-transform: translate(144.4600067138672px, 40px) rotate(0deg) translate(-144.4600067138672px, -40px);transform: translate(144.4600067138672px, 40px) rotate(0deg) translate(-144.4600067138672px, -40px);}100%{-webkit-transform: translate(144.4600067138672px, 40px) rotate(180deg) translate(-144.4600067138672px, -40px);transform: translate(144.4600067138672px, 40px) rotate(180deg) translate(-144.4600067138672px, -40px);}}#el_ItGyo1LFP *{-webkit-animation-duration: 1s;animation-duration: 1s;-webkit-animation-iteration-count: infinite;animation-iteration-count: infinite;-webkit-animation-timing-function: cubic-bezier(0, 0, 1, 1);animation-timing-function: cubic-bezier(0, 0, 1, 1);}#el_qm8YrEuGNH{fill: none;}#el_VwImpAkJZa{fill: #fff;}#el_eTcx9zSnU3{fill: none;stroke: #fff;stroke-width: 2;}#el_kV6ivuD0U1{fill: none;stroke: #fff;}#el_bamFaZ1_z4{fill: #fff;}#el_63SQfN8kX5{fill: #1f3c70;}#el_eTcx9zSnU3_yqRDPsv-H{-webkit-animation-name: el_eTcx9zSnU3_yqRDPsv-H_Animation;animation-name: el_eTcx9zSnU3_yqRDPsv-H_Animation;-webkit-transform: translate(144.4600067138672px, 40px) rotate(0deg) translate(-144.4600067138672px, -40px);transform: translate(144.4600067138672px, 40px) rotate(0deg) translate(-144.4600067138672px, -40px);}</style>
  <title>hkust_central_map-pin_output</title>
  <rect x="-571.77" y="-1555.02" width="1440" height="5505" id="el_qm8YrEuGNH"/>
  <g id="el_ZyAsC6y-vX">
    <circle cx="144.46" cy="40" r="30" id="el_VwImpAkJZa"/>
    <g id="el_eTcx9zSnU3_yqRDPsv-H" data-animator-group="true" data-animator-type="1"><circle cx="144.46" cy="40" r="39" stroke-miterlimit="10" stroke-dasharray="30.62 30.62" id="el_eTcx9zSnU3"/></g>
    <line x1="106.06" y1="40" x2="10" y2="40" stroke-miterlimit="10" id="el_kV6ivuD0U1"/>
    <circle cx="5" cy="40" r="5" id="el_bamFaZ1_z4"/>
    <path d="M139.53,29.1a3.39,3.39,0,0,1-.24-.6h10.48a1.52,1.52,0,0,1-.23.6Zm9.4.89a2.23,2.23,0,0,0,.39-.52h-9.59a1.82,1.82,0,0,0,.34.52Zm-.76.81a1.62,1.62,0,0,0,.44-.4H140.4a5.16,5.16,0,0,0,.39.4Zm-.95.75a1.93,1.93,0,0,0,.49-.3h-6.4s0,.05.46.3ZM142.5,32a4.31,4.31,0,0,0,2,.39,5.59,5.59,0,0,0,2.17-.39Zm-8.25.89-1.64,2.49h7.55a2.7,2.7,0,0,1,1.19.44,2.31,2.31,0,0,1,.81.78c.08.11,0,.06.11.19a.51.51,0,0,0,.23.2h3.87s0,0,.09,0a.63.63,0,0,0,.25-.24,1.09,1.09,0,0,0,.15-.31,2.71,2.71,0,0,1,.72-.64,3.15,3.15,0,0,1,1.31-.48h7.42l-1.63-2.41h-8.27a3.47,3.47,0,0,0-1.19.5,2.71,2.71,0,0,0-.74.95,4.32,4.32,0,0,0-.8-1,2.68,2.68,0,0,0-1.28-.41Zm2.3,3.4V48.64a5.91,5.91,0,0,0,1,2.56,6.36,6.36,0,0,0,2.24,2.15l1-1.63a5.68,5.68,0,0,1-1.61-1.58,3.92,3.92,0,0,1-.67-1.93V36.32Zm14,0V48.16a5.61,5.61,0,0,1-.72,2,7.15,7.15,0,0,1-1.5,1.56l1,1.61a10.44,10.44,0,0,0,2.26-2.28,7.88,7.88,0,0,0,.91-2.93V36.28Zm-17.09,0V48.68a9.71,9.71,0,0,0,1.33,3.91A12,12,0,0,0,138.14,56l1-1.62a7.59,7.59,0,0,1-2.49-2.44,7,7,0,0,1-1.2-3.27V36.32Zm9,1.3V50.68s-.05,0-.07.24a.58.58,0,0,1-.15.32l-4.36,7.22h13.37l-4.36-7.37-.13-.33,0-.34V37.65H145V50.9a.93.93,0,0,0,.07.34,4.06,4.06,0,0,0,.13.39l2.69,4.43h-6.82l2.65-4.41a1.66,1.66,0,0,0,.15-.36,3.2,3.2,0,0,0,.07-.39V37.62Zm11.15-1.34V48.43a7,7,0,0,1-1.17,3.35,8,8,0,0,1-2.47,2.56l1,1.65a11.85,11.85,0,0,0,3.25-3.25,10.49,10.49,0,0,0,1.39-4.31V36.28Zm-3.73-8.13a5.42,5.42,0,0,0-2.06-5.51,5.22,5.22,0,0,0-3.32-1.1,5,5,0,0,0-3.19,1.12c-2.69,1.83-2,5.49-2,5.49Z" fill-rule="evenodd" id="el_63SQfN8kX5"/>
  </g>
</svg>