<svg id="el_Ylj_8imV_" data-name="Layer 1" xmlns="http://www.w3.org/2000/svg" viewBox="0 0 63 168"><style>@-webkit-keyframes el_iiatpVKPif_cRmOiOIav_Animation{0%{-webkit-transform: translate(31.5px, 31.5px) rotate(0deg) translate(-31.5px, -31.5px);transform: translate(31.5px, 31.5px) rotate(0deg) translate(-31.5px, -31.5px);}100%{-webkit-transform: translate(31.5px, 31.5px) rotate(360deg) translate(-31.5px, -31.5px);transform: translate(31.5px, 31.5px) rotate(360deg) translate(-31.5px, -31.5px);}}@keyframes el_iiatpVKPif_cRmOiOIav_Animation{0%{-webkit-transform: translate(31.5px, 31.5px) rotate(0deg) translate(-31.5px, -31.5px);transform: translate(31.5px, 31.5px) rotate(0deg) translate(-31.5px, -31.5px);}100%{-webkit-transform: translate(31.5px, 31.5px) rotate(360deg) translate(-31.5px, -31.5px);transform: translate(31.5px, 31.5px) rotate(360deg) translate(-31.5px, -31.5px);}}#el_Ylj_8imV_ *{-webkit-animation-duration: 1.5s;animation-duration: 1.5s;-webkit-animation-iteration-count: infinite;animation-iteration-count: infinite;-webkit-animation-timing-function: cubic-bezier(0, 0, 1, 1);animation-timing-function: cubic-bezier(0, 0, 1, 1);}#el_1rcAhJ2E_1{fill: #fff;}#el_iiatpVKPif{fill: none;stroke: #fff;stroke-width: 2;}#el_mwzor6Fk-C{fill: none;stroke: #fff;}#el_6ydFh7t2kt{fill: #fff;}#el_ZeJQbMTNaw{fill: #ca2027;}#el_T34Rg-zZZG{fill: none;}#el_iiatpVKPif_cRmOiOIav{-webkit-animation-name: el_iiatpVKPif_cRmOiOIav_Animation;animation-name: el_iiatpVKPif_cRmOiOIav_Animation;}</style>
  <title>hkust_central_map-pin_output</title>
  <circle cx="31.5" cy="31.5" r="24" id="el_1rcAhJ2E_1"/>
  <g id="el_iiatpVKPif_cRmOiOIav" data-animator-group="true" data-animator-type="1"><circle cx="31.5" cy="31.5" r="31" stroke-miterlimit="10" stroke-dasharray="32.45 32.45" id="el_iiatpVKPif"/></g>
  <line x1="31.5" y1="62.5" x2="31.5" y2="158.56" stroke-miterlimit="10" id="el_mwzor6Fk-C"/>
  <circle cx="31.5" cy="163.56" r="5" id="el_6ydFh7t2kt"/>
  <path d="M38.57,42.32a7,7,0,0,0-5.38-6.09v6.32H29.81V36.23a7,7,0,0,0-5.38,6.09H21a10.37,10.37,0,0,1,8.82-9.5V30.18A10.36,10.36,0,0,1,21,20.68h3.44a7,7,0,0,0,5.38,6.09V20.45h3.38v6.32a7,7,0,0,0,5.38-6.09H42a10.36,10.36,0,0,1-8.82,9.5v2.64A10.36,10.36,0,0,1,42,42.32Z" fill-rule="evenodd" id="el_ZeJQbMTNaw"/>
  <rect x="-465.1" y="-1555.52" width="1440" height="5505" id="el_T34Rg-zZZG"/>
</svg>