<svg id="el_BriQdZTYm" data-name="Layer 1" xmlns="http://www.w3.org/2000/svg" xmlns:xlink="http://www.w3.org/1999/xlink" viewBox="0 0 79 107"><style>@-webkit-keyframes kf_el_fsM6PMN2kf_an_70qadwnJ1{0%{-webkit-transform: translate(39.5px, 39.5099983215332px) rotate(0deg) translate(-39.5px, -39.5099983215332px);transform: translate(39.5px, 39.5099983215332px) rotate(0deg) translate(-39.5px, -39.5099983215332px);}100%{-webkit-transform: translate(39.5px, 39.5099983215332px) rotate(360deg) translate(-39.5px, -39.5099983215332px);transform: translate(39.5px, 39.5099983215332px) rotate(360deg) translate(-39.5px, -39.5099983215332px);}}@keyframes kf_el_fsM6PMN2kf_an_70qadwnJ1{0%{-webkit-transform: translate(39.5px, 39.5099983215332px) rotate(0deg) translate(-39.5px, -39.5099983215332px);transform: translate(39.5px, 39.5099983215332px) rotate(0deg) translate(-39.5px, -39.5099983215332px);}100%{-webkit-transform: translate(39.5px, 39.5099983215332px) rotate(360deg) translate(-39.5px, -39.5099983215332px);transform: translate(39.5px, 39.5099983215332px) rotate(360deg) translate(-39.5px, -39.5099983215332px);}}#el_BriQdZTYm *{-webkit-animation-duration: 2s;animation-duration: 2s;-webkit-animation-iteration-count: infinite;animation-iteration-count: infinite;-webkit-animation-timing-function: cubic-bezier(0, 0, 1, 1);animation-timing-function: cubic-bezier(0, 0, 1, 1);}#el_7RZ5KF7dfZ{fill: #1957a8;}#el_tj1fIViIrA{fill: #fff;}#el_fsM6PMN2kf{fill: none;stroke: #1d58a7;}#el_lOjlU5JgG6{fill: none;stroke: #1957a8;}#el_wqZFoik9nk{fill: #1957a8;}#el_fsM6PMN2kf_an_70qadwnJ1{-webkit-animation-fill-mode: none;animation-fill-mode: none;-webkit-animation-name: kf_el_fsM6PMN2kf_an_70qadwnJ1;animation-name: kf_el_fsM6PMN2kf_an_70qadwnJ1;-webkit-animation-timing-function: cubic-bezier(0, 0, 1, 1);animation-timing-function: cubic-bezier(0, 0, 1, 1);}</style>
  <defs>
    <clipPath id="clip-path">
      <ellipse cx="39.43" cy="38.49" rx="30.03" ry="30" fill="none"/>
    </clipPath>
    <clipPath id="clip-path-2">
      <rect x="-1017.6" y="-766.51" width="1440" height="5718" fill="none"/>
    </clipPath>
    <clipPath id="clip-path-3">
      <rect x="27.42" y="19.49" width="23.7" height="36.93" fill="none"/>
    </clipPath>
    <clipPath id="clip-path-5">
      <rect x="27.4" y="19.49" width="24" height="37" fill="none"/>
    </clipPath>
    <clipPath id="clip-path-6">
      <path d="M34.34,27.06a3.71,3.71,0,0,1-.24-.61H44.58a1.59,1.59,0,0,1-.23.61Zm9.4.89a2.47,2.47,0,0,0,.39-.52H34.54a1.74,1.74,0,0,0,.35.52Zm-.76.8a1.66,1.66,0,0,0,.44-.39H35.21s.2.22.39.39Zm-.95.76a2.16,2.16,0,0,0,.49-.31h-6.4s0,.05.46.31ZM37.31,30a4.22,4.22,0,0,0,2,.4,5.47,5.47,0,0,0,2.17-.4Zm-8.24.89-1.65,2.5H35a2.82,2.82,0,0,1,1.2.43,2.32,2.32,0,0,1,.8.79c.08.1,0,.06.11.19a.53.53,0,0,0,.23.19h3.87s0,0,.09,0a.72.72,0,0,0,.26-.24,1.29,1.29,0,0,0,.15-.3,2.71,2.71,0,0,1,.71-.65,3.15,3.15,0,0,1,1.31-.48h7.42l-1.63-2.41H41.22a3.47,3.47,0,0,0-1.19.5,2.71,2.71,0,0,0-.74,1,4.32,4.32,0,0,0-.8-1,2.74,2.74,0,0,0-1.28-.42Zm2.3,3.41V46.6a5.78,5.78,0,0,0,.95,2.55,6.33,6.33,0,0,0,2.24,2.15l1-1.62A5.8,5.8,0,0,1,34,48.09a3.92,3.92,0,0,1-.67-1.93V34.28Zm14,0V46.12a5.67,5.67,0,0,1-.72,2,7.43,7.43,0,0,1-1.5,1.56l1,1.6a10.29,10.29,0,0,0,2.26-2.27,7.93,7.93,0,0,0,.91-2.93V34.24Zm-17.09,0V46.64a9.64,9.64,0,0,0,1.33,3.9A11.93,11.93,0,0,0,33,53.93l1-1.63a7.62,7.62,0,0,1-2.49-2.43,7,7,0,0,1-1.2-3.27V34.28Zm9,1.3V48.63a.43.43,0,0,0-.07.24.59.59,0,0,1-.15.33l-4.36,7.22H46l-4.36-7.37-.13-.33,0-.35V35.6H39.83V48.85a1,1,0,0,0,.07.35c0,.15.13.39.13.39L42.72,54H35.9l2.65-4.4a1.62,1.62,0,0,0,.15-.37,2.89,2.89,0,0,0,.07-.39V35.58Zm11.15-1.34V46.38a7,7,0,0,1-1.17,3.36,8.16,8.16,0,0,1-2.47,2.56l1,1.65A11.8,11.8,0,0,0,49,50.69a10.44,10.44,0,0,0,1.39-4.31V34.24ZM44.63,26.1a5.4,5.4,0,0,0-2.06-5.5,5.2,5.2,0,0,0-3.32-1.11,5,5,0,0,0-3.19,1.13c-2.69,1.82-2,5.48-2,5.48Z" fill="none" clip-rule="evenodd"/>
    </clipPath>
    <clipPath id="clip-path-8">
      <ellipse cx="-110.7" cy="-3.52" rx="30.03" ry="30" fill="none"/>
    </clipPath>
    <clipPath id="clip-path-9">
      <rect x="-122.71" y="-22.52" width="23.7" height="36.93" fill="none"/>
    </clipPath>
  </defs>
  <title>Untitled-1</title>
  <g id="el_gneqLvrwnj">
    <g clip-path="url(#clip-path)" id="el_Cs5TiIaK0X">
      <g clip-path="url(#clip-path-2)" id="el_80BCj1_poK">
        <rect x="4.4" y="3.49" width="70.06" height="70" id="el_7RZ5KF7dfZ"/>
      </g>
    </g>
    <g clip-path="url(#clip-path-3)" id="el__c5sXPTu6T">
      <g clip-path="url(#clip-path-2)" id="el_whz5iP-zwA">
        <g clip-path="url(#clip-path-5)" id="el_2B9UzqUnDU">
          <g clip-path="url(#clip-path-6)" id="el_MWxbSGklz3">
            <g clip-path="url(#clip-path-5)" id="el_I4Ywgeaeam">
              <rect x="22.42" y="14.49" width="33.7" height="46.93" id="el_tj1fIViIrA"/>
            </g>
          </g>
        </g>
      </g>
    </g>
    <g id="el_fsM6PMN2kf_an_70qadwnJ1" data-animator-group="true" data-animator-type="1"><circle cx="39.5" cy="39.51" r="39" stroke-miterlimit="10" stroke-dasharray="30.62 30.62" id="el_fsM6PMN2kf"/></g>
    <line x1="39.5" y1="78.71" x2="39.5" y2="97.56" stroke-miterlimit="10" id="el_lOjlU5JgG6"/>
    <circle cx="39.5" cy="101.76" r="5" id="el_wqZFoik9nk"/>
  </g>
</svg>