<svg version="1.1" id="el__vYuUkSje" xmlns="http://www.w3.org/2000/svg" xmlns:xlink="http://www.w3.org/1999/xlink" x="0px" y="0px" viewBox="0 0 79 190" style="enable-background:new 0 0 79 190.01;" xml:space="preserve"><style>@-webkit-keyframes kf_el_unFw-9EILb_an_hWVE1RETK{0%{-webkit-transform: translate(39.5px, 39.5px) rotate(0deg) translate(-39.5px, -39.5px);transform: translate(39.5px, 39.5px) rotate(0deg) translate(-39.5px, -39.5px);}100%{-webkit-transform: translate(39.5px, 39.5px) rotate(360deg) translate(-39.5px, -39.5px);transform: translate(39.5px, 39.5px) rotate(360deg) translate(-39.5px, -39.5px);}}@keyframes kf_el_unFw-9EILb_an_hWVE1RETK{0%{-webkit-transform: translate(39.5px, 39.5px) rotate(0deg) translate(-39.5px, -39.5px);transform: translate(39.5px, 39.5px) rotate(0deg) translate(-39.5px, -39.5px);}100%{-webkit-transform: translate(39.5px, 39.5px) rotate(360deg) translate(-39.5px, -39.5px);transform: translate(39.5px, 39.5px) rotate(360deg) translate(-39.5px, -39.5px);}}#el__vYuUkSje *{-webkit-animation-duration: 2s;animation-duration: 2s;-webkit-animation-iteration-count: infinite;animation-iteration-count: infinite;-webkit-animation-timing-function: cubic-bezier(0, 0, 1, 1);animation-timing-function: cubic-bezier(0, 0, 1, 1);}#el_xSH5J798yc{-webkit-clip-path: url(#SVGID_2_);clip-path: url(#SVGID_2_);}#el_fy2T8AQXYm{-webkit-clip-path: url(#SVGID_4_);clip-path: url(#SVGID_4_);fill: #1957A8;}#el_SULZJSRb_P{-webkit-clip-path: url(#SVGID_6_);clip-path: url(#SVGID_6_);}#el_tVW44kssoV{-webkit-clip-path: url(#SVGID_8_);clip-path: url(#SVGID_8_);enable-background: new;}#el_DmxQFEgV87{-webkit-clip-path: url(#SVGID_10_);clip-path: url(#SVGID_10_);}#el_HlW8fKBE2R{-webkit-clip-path: url(#SVGID_12_);clip-path: url(#SVGID_12_);}#el_cRpneegERm{-webkit-clip-path: url(#SVGID_14_);clip-path: url(#SVGID_14_);fill: #FFFFFF;}#el_kUnIu1zqnD{fill: none;stroke: #1D58A7;stroke-miterlimit: 10;stroke-dasharray: 30.6225,30.6225;}#el_-q7_fheA5o{fill: none;stroke: #1957A8;stroke-miterlimit: 10;}#el_CwEcugwlcG{fill: #1957A8;}#el_unFw-9EILb_an_hWVE1RETK{-webkit-animation-fill-mode: none;animation-fill-mode: none;-webkit-transform: translate(39.5px, 39.5px) rotate(0deg) translate(-39.5px, -39.5px);transform: translate(39.5px, 39.5px) rotate(0deg) translate(-39.5px, -39.5px);-webkit-animation-name: kf_el_unFw-9EILb_an_hWVE1RETK;animation-name: kf_el_unFw-9EILb_an_hWVE1RETK;-webkit-animation-timing-function: cubic-bezier(0, 0, 1, 1);animation-timing-function: cubic-bezier(0, 0, 1, 1);}</style>

<g id="el_heXl0_ZDb9">
	<defs>
		<ellipse id="SVGID_1_" cx="39.43" cy="38.48" rx="30.03" ry="30"/>
	</defs>
	<clipPath id="SVGID_2_">
		<use xlink:href="#SVGID_1_" style="overflow:visible;"/>
	</clipPath>
	<g id="el_xSH5J798yc">
		<defs>
			<rect id="SVGID_3_" x="-1017.6" y="-766.52" width="1440" height="5718"/>
		</defs>
		<clipPath id="SVGID_4_">
			<use xlink:href="#SVGID_3_" style="overflow:visible;"/>
		</clipPath>
		<rect x="4.4" y="3.48" width="70.06" height="70" id="el_fy2T8AQXYm"/>
	</g>
</g>
<g id="el_ABHtRYcLlv">
	<defs>
		<rect id="SVGID_5_" x="27.42" y="19.48" width="23.7" height="36.93"/>
	</defs>
	<clipPath id="SVGID_6_">
		<use xlink:href="#SVGID_5_" style="overflow:visible;"/>
	</clipPath>
	<g id="el_SULZJSRb_P">
		<defs>
			<rect id="SVGID_7_" x="-1017.6" y="-766.52" width="1440" height="5718"/>
		</defs>
		<clipPath id="SVGID_8_">
			<use xlink:href="#SVGID_7_" style="overflow:visible;"/>
		</clipPath>
		<g id="el_tVW44kssoV">
			<g id="el_LwmUTtfnRz">
				<defs>
					<rect id="SVGID_9_" x="27.4" y="19.48" width="24" height="37"/>
				</defs>
				<clipPath id="SVGID_10_">
					<use xlink:href="#SVGID_9_" style="overflow:visible;"/>
				</clipPath>
				<g id="el_DmxQFEgV87">
					<defs>
						<path id="SVGID_11_" d="M34.34,27.05c-0.11-0.18-0.24-0.61-0.24-0.61h10.48c0,0-0.06,0.39-0.23,0.61H34.34z M43.74,27.94&#10;&#9;&#9;&#9;&#9;&#9;&#9;&#9;c0.2-0.17,0.39-0.52,0.39-0.52h-9.6c0,0,0.11,0.26,0.35,0.52H43.74z M42.98,28.74c0.24-0.13,0.43-0.39,0.43-0.39h-8.21&#10;&#9;&#9;&#9;&#9;&#9;&#9;&#9;c0,0,0.19,0.22,0.39,0.39H42.98z M42.03,29.5c0.23-0.09,0.5-0.31,0.5-0.31h-6.4c0,0,0,0.05,0.46,0.31H42.03z M37.31,29.97&#10;&#9;&#9;&#9;&#9;&#9;&#9;&#9;c0,0,0.68,0.39,2,0.39c1.33,0,2.17-0.39,2.17-0.39H37.31z M29.07,30.86l-1.65,2.5h7.55c0,0,0.59,0.04,1.19,0.43&#10;&#9;&#9;&#9;&#9;&#9;&#9;&#9;c0.59,0.39,0.74,0.68,0.8,0.78c0.08,0.11,0.02,0.06,0.11,0.19c0.08,0.14,0.24,0.2,0.24,0.2h3.87c0,0-0.02,0.02,0.09-0.02&#10;&#9;&#9;&#9;&#9;&#9;&#9;&#9;c0.11-0.04,0.17-0.13,0.26-0.24c0.09-0.11,0.15-0.3,0.15-0.3s0.31-0.41,0.72-0.65c0.78-0.46,1.3-0.48,1.3-0.48h7.43&#10;&#9;&#9;&#9;&#9;&#9;&#9;&#9;l-1.63-2.41h-8.27c0,0-0.74,0.15-1.19,0.5c-0.46,0.33-0.74,0.95-0.74,0.95s-0.35-0.65-0.8-1.04&#10;&#9;&#9;&#9;&#9;&#9;&#9;&#9;c-0.48-0.37-1.28-0.41-1.28-0.41H29.07z M31.37,34.27v12.32c0,0,0.04,1.09,0.96,2.56c0.91,1.48,2.23,2.15,2.23,2.15l1.04-1.63&#10;&#9;&#9;&#9;&#9;&#9;&#9;&#9;c0,0-0.91-0.55-1.61-1.58c-0.67-1.04-0.67-1.93-0.67-1.93V34.27H31.37z M45.35,34.23v11.88c0,0-0.15,1.19-0.72,2.04&#10;&#9;&#9;&#9;&#9;&#9;&#9;&#9;c-0.56,0.87-1.5,1.56-1.5,1.56l1,1.61c0,0,1.52-1.11,2.26-2.28c0.74-1.17,0.91-2.93,0.91-2.93V34.23H45.35z M28.26,34.27&#10;&#9;&#9;&#9;&#9;&#9;&#9;&#9;v12.36c0,0,0.13,1.91,1.32,3.9c1.2,1.99,3.36,3.38,3.36,3.38l1.02-1.63c0,0-1.39-0.74-2.49-2.43&#10;&#9;&#9;&#9;&#9;&#9;&#9;&#9;c-1.13-1.71-1.19-3.27-1.19-3.27V34.27H28.26z M37.21,35.57v13.05c0,0-0.05,0.04-0.06,0.24c-0.02,0.2-0.15,0.33-0.15,0.33&#10;&#9;&#9;&#9;&#9;&#9;&#9;&#9;l-4.36,7.22H46l-4.36-7.37l-0.13-0.33l-0.04-0.34V35.59h-1.63v13.25c0,0,0,0.19,0.07,0.35c0.04,0.15,0.13,0.39,0.13,0.39&#10;&#9;&#9;&#9;&#9;&#9;&#9;&#9;L42.72,54H35.9l2.65-4.4c0,0,0.09-0.15,0.15-0.37c0.05-0.2,0.06-0.39,0.06-0.39V35.57H37.21z M48.36,34.23v12.14&#10;&#9;&#9;&#9;&#9;&#9;&#9;&#9;c0,0-0.02,1.56-1.17,3.36c-1.15,1.8-2.48,2.56-2.48,2.56l0.98,1.65c0,0,1.99-1.26,3.25-3.25c1.24-1.99,1.39-4.31,1.39-4.31&#10;&#9;&#9;&#9;&#9;&#9;&#9;&#9;V34.23H48.36z M44.63,26.09c0,0,0.87-3.36-2.06-5.51c0,0-1.21-1.1-3.32-1.1c-1.97,0-3.19,1.13-3.19,1.13&#10;&#9;&#9;&#9;&#9;&#9;&#9;&#9;c-2.69,1.83-2.02,5.49-2.02,5.49H44.63z"/>
					</defs>
					<clipPath id="SVGID_12_">
						<use xlink:href="#SVGID_11_" style="overflow:visible;"/>
					</clipPath>
					<g id="el_HlW8fKBE2R">
						<defs>
							<rect id="SVGID_13_" x="27.4" y="19.48" width="24" height="37"/>
						</defs>
						<clipPath id="SVGID_14_">
							<use xlink:href="#SVGID_13_" style="overflow:visible;"/>
						</clipPath>
						<rect x="22.42" y="14.48" width="33.7" height="46.93" id="el_cRpneegERm"/>
					</g>
				</g>
			</g>
		</g>
	</g>
</g>
<g id="el_unFw-9EILb_an_hWVE1RETK" data-animator-group="true" data-animator-type="1"><g id="el_unFw-9EILb">
	<circle cx="39.5" cy="39.5" r="39" id="el_kUnIu1zqnD"/>
</g></g>
<line x1="39.5" y1="78.7" x2="39.5" y2="180.01" id="el_-q7_fheA5o"/>
<circle cx="39.5" cy="185.01" r="5" id="el_CwEcugwlcG"/>
</svg>