<svg id="el_SwoV7n594" data-name="Layer 1" xmlns="http://www.w3.org/2000/svg" viewBox="0 0 123 80"><style>@-webkit-keyframes el_9WTBTw79Cc_dMEJaVu33_Animation{0%{-webkit-transform: translate(83.45999908447266px, 40px) rotate(0deg) translate(-83.45999908447266px, -40px);transform: translate(83.45999908447266px, 40px) rotate(0deg) translate(-83.45999908447266px, -40px);}100%{-webkit-transform: translate(83.45999908447266px, 40px) rotate(360deg) translate(-83.45999908447266px, -40px);transform: translate(83.45999908447266px, 40px) rotate(360deg) translate(-83.45999908447266px, -40px);}}@keyframes el_9WTBTw79Cc_dMEJaVu33_Animation{0%{-webkit-transform: translate(83.45999908447266px, 40px) rotate(0deg) translate(-83.45999908447266px, -40px);transform: translate(83.45999908447266px, 40px) rotate(0deg) translate(-83.45999908447266px, -40px);}100%{-webkit-transform: translate(83.45999908447266px, 40px) rotate(360deg) translate(-83.45999908447266px, -40px);transform: translate(83.45999908447266px, 40px) rotate(360deg) translate(-83.45999908447266px, -40px);}}#el_SwoV7n594 *{-webkit-animation-duration: 1.5s;animation-duration: 1.5s;-webkit-animation-iteration-count: infinite;animation-iteration-count: infinite;-webkit-animation-timing-function: cubic-bezier(0, 0, 1, 1);animation-timing-function: cubic-bezier(0, 0, 1, 1);}#el_0C2y5F99SC{fill: none;}#el_ZGh4uinJOI{fill: #fff;}#el_9WTBTw79Cc{fill: none;stroke: #fff;stroke-width: 2;}#el_mWSaQfqGDR{fill: none;stroke: #fff;}#el_SVJ284Jbn8{fill: #fff;}#el_8TK4kbkHoa{fill: #1f3c70;}#el_9WTBTw79Cc_dMEJaVu33{-webkit-animation-name: el_9WTBTw79Cc_dMEJaVu33_Animation;animation-name: el_9WTBTw79Cc_dMEJaVu33_Animation;}</style>
  <title>pin</title>
  <rect x="-706.27" y="-2060.42" width="1440" height="5505" id="el_0C2y5F99SC"/>
  <g id="el_PtCCFHLL2N">
    <circle cx="83.46" cy="40" r="30" id="el_ZGh4uinJOI"/>
    <g id="el_9WTBTw79Cc_dMEJaVu33" data-animator-group="true" data-animator-type="1"><circle cx="83.46" cy="40" r="39" stroke-miterlimit="10" stroke-dasharray="30.62 30.62" id="el_9WTBTw79Cc"/></g>
    <line x1="45" y1="41" x2="5" y2="41" stroke-miterlimit="10" id="el_mWSaQfqGDR"/>
    <circle cx="5" cy="41" r="5" id="el_SVJ284Jbn8"/>
    <path d="M78.53,29.1a3.39,3.39,0,0,1-.24-.6H88.77a1.52,1.52,0,0,1-.23.6Zm9.4.89a2.23,2.23,0,0,0,.39-.52H78.73a1.82,1.82,0,0,0,.34.52Zm-.76.81a1.62,1.62,0,0,0,.44-.4H79.4a5.16,5.16,0,0,0,.39.4Zm-1,.75a1.93,1.93,0,0,0,.49-.3h-6.4s0,.05.46.3ZM81.5,32a4.31,4.31,0,0,0,2,.39A5.59,5.59,0,0,0,85.67,32Zm-8.25.89-1.64,2.49h7.55a2.7,2.7,0,0,1,1.19.44,2.31,2.31,0,0,1,.81.78c.08.11,0,.06.11.19a.51.51,0,0,0,.23.2h3.87s0,0,.09,0a.63.63,0,0,0,.25-.24,1.09,1.09,0,0,0,.15-.31,2.71,2.71,0,0,1,.72-.64,3.15,3.15,0,0,1,1.31-.48h7.42l-1.63-2.41H85.41a3.47,3.47,0,0,0-1.19.5,2.71,2.71,0,0,0-.74.95,4.32,4.32,0,0,0-.8-1,2.68,2.68,0,0,0-1.28-.41Zm2.3,3.4V48.64a5.91,5.91,0,0,0,1,2.56,6.36,6.36,0,0,0,2.24,2.15l1-1.63a5.68,5.68,0,0,1-1.61-1.58,3.92,3.92,0,0,1-.67-1.93V36.32Zm14,0V48.16a5.61,5.61,0,0,1-.72,2,7.15,7.15,0,0,1-1.5,1.56l1,1.61a10.44,10.44,0,0,0,2.26-2.28,7.88,7.88,0,0,0,.91-2.93V36.28Zm-17.09,0V48.68a9.71,9.71,0,0,0,1.33,3.91A12,12,0,0,0,77.14,56l1-1.62a7.59,7.59,0,0,1-2.49-2.44,7,7,0,0,1-1.2-3.27V36.32Zm9,1.3V50.68s-.05,0-.07.24a.58.58,0,0,1-.15.32l-4.36,7.22H90.19l-4.36-7.37-.13-.33,0-.34V37.65H84V50.9a.93.93,0,0,0,.07.34,4.06,4.06,0,0,0,.13.39l2.69,4.43H80.09l2.65-4.41a1.66,1.66,0,0,0,.15-.36A3.2,3.2,0,0,0,83,50.9V37.62Zm11.15-1.34V48.43a7,7,0,0,1-1.17,3.35,8,8,0,0,1-2.47,2.56l1,1.65a11.85,11.85,0,0,0,3.25-3.25,10.49,10.49,0,0,0,1.39-4.31V36.28Zm-3.73-8.13a5.42,5.42,0,0,0-2.06-5.51,5.22,5.22,0,0,0-3.32-1.1,5,5,0,0,0-3.19,1.12c-2.69,1.83-2,5.49-2,5.49Z" fill-rule="evenodd" id="el_8TK4kbkHoa"/>
  </g>
</svg>