<svg id="svg" version="1.1" width="400" height="750" xmlns="http://www.w3.org/2000/svg" xmlns:xlink="http://www.w3.org/1999/xlink" style="display: block;"><g id="svgg"><path id="path0" d="M6.400 3.200 L 6.400 6.400 3.200 6.400 L 0.000 6.400 0.000 375.000 L 0.000 743.600 3.200 743.600 L 6.400 743.600 6.400 746.800 L 6.400 750.000 50.000 750.000 L 93.600 750.000 93.600 746.861 L 93.600 743.722 98.330 743.484 C 104.226 743.188,105.003 742.866,105.659 740.445 C 106.247 738.276,106.659 43.954,106.085 22.000 C 105.667 5.984,106.126 6.908,98.388 6.519 L 93.600 6.278 93.600 3.139 L 93.600 0.000 50.000 0.000 L 6.400 0.000 6.400 3.200 M306.400 3.139 L 306.400 6.278 301.612 6.519 C 293.874 6.908,294.333 5.984,293.915 22.000 C 293.341 43.954,293.753 738.276,294.341 740.445 C 294.997 742.866,295.774 743.188,301.670 743.484 L 306.400 743.722 306.400 746.861 L 306.400 750.000 350.000 750.000 L 393.600 750.000 393.600 746.800 L 393.600 743.600 396.800 743.600 L 400.000 743.600 400.000 375.000 L 400.000 6.400 396.800 6.400 L 393.600 6.400 393.600 3.200 L 393.600 0.000 350.000 0.000 L 306.400 0.000 306.400 3.139 " stroke="none" fill="#ffffff" fill-rule="evenodd"></path><path id="path1" d="M6.400 3.200 L 6.400 6.400 3.200 6.400 L 0.000 6.400 0.000 375.000 L 0.000 743.600 3.200 743.600 L 6.400 743.600 6.400 746.800 L 6.400 750.000 50.000 750.000 L 93.600 750.000 93.600 746.861 L 93.600 743.722 98.330 743.484 C 104.226 743.188,105.003 742.866,105.659 740.445 C 106.247 738.276,106.659 43.954,106.085 22.000 C 105.667 5.984,106.126 6.908,98.388 6.519 L 93.600 6.278 93.600 3.139 L 93.600 0.000 50.000 0.000 L 6.400 0.000 6.400 3.200 M306.400 3.139 L 306.400 6.278 301.612 6.519 C 293.874 6.908,294.333 5.984,293.915 22.000 C 293.341 43.954,293.753 738.276,294.341 740.445 C 294.997 742.866,295.774 743.188,301.670 743.484 L 306.400 743.722 306.400 746.861 L 306.400 750.000 350.000 750.000 L 393.600 750.000 393.600 746.800 L 393.600 743.600 396.800 743.600 L 400.000 743.600 400.000 375.000 L 400.000 6.400 396.800 6.400 L 393.600 6.400 393.600 3.200 L 393.600 0.000 350.000 0.000 L 306.400 0.000 306.400 3.139 " stroke="none" fill="#ffffff" fill-rule="evenodd"></path><path id="path2" d="M6.400 3.200 L 6.400 6.400 3.200 6.400 L 0.000 6.400 0.000 375.000 L 0.000 743.600 3.200 743.600 L 6.400 743.600 6.400 746.800 L 6.400 750.000 50.000 750.000 L 93.600 750.000 93.600 746.861 L 93.600 743.722 98.330 743.484 C 104.226 743.188,105.003 742.866,105.659 740.445 C 106.247 738.276,106.659 43.954,106.085 22.000 C 105.667 5.984,106.126 6.908,98.388 6.519 L 93.600 6.278 93.600 3.139 L 93.600 0.000 50.000 0.000 L 6.400 0.000 6.400 3.200 M306.400 3.139 L 306.400 6.278 301.612 6.519 C 293.874 6.908,294.333 5.984,293.915 22.000 C 293.341 43.954,293.753 738.276,294.341 740.445 C 294.997 742.866,295.774 743.188,301.670 743.484 L 306.400 743.722 306.400 746.861 L 306.400 750.000 350.000 750.000 L 393.600 750.000 393.600 746.800 L 393.600 743.600 396.800 743.600 L 400.000 743.600 400.000 375.000 L 400.000 6.400 396.800 6.400 L 393.600 6.400 393.600 3.200 L 393.600 0.000 350.000 0.000 L 306.400 0.000 306.400 3.139 " stroke="none" fill="#ffffff" fill-rule="evenodd"></path><path id="path3" d="M6.400 3.200 L 6.400 6.400 3.200 6.400 L 0.000 6.400 0.000 375.000 L 0.000 743.600 3.200 743.600 L 6.400 743.600 6.400 746.800 L 6.400 750.000 50.000 750.000 L 93.600 750.000 93.600 746.861 L 93.600 743.722 98.330 743.484 C 104.226 743.188,105.003 742.866,105.659 740.445 C 106.247 738.276,106.659 43.954,106.085 22.000 C 105.667 5.984,106.126 6.908,98.388 6.519 L 93.600 6.278 93.600 3.139 L 93.600 0.000 50.000 0.000 L 6.400 0.000 6.400 3.200 M306.400 3.139 L 306.400 6.278 301.612 6.519 C 293.874 6.908,294.333 5.984,293.915 22.000 C 293.341 43.954,293.753 738.276,294.341 740.445 C 294.997 742.866,295.774 743.188,301.670 743.484 L 306.400 743.722 306.400 746.861 L 306.400 750.000 350.000 750.000 L 393.600 750.000 393.600 746.800 L 393.600 743.600 396.800 743.600 L 400.000 743.600 400.000 375.000 L 400.000 6.400 396.800 6.400 L 393.600 6.400 393.600 3.200 L 393.600 0.000 350.000 0.000 L 306.400 0.000 306.400 3.139 " stroke="none" fill="#ffffff" fill-rule="evenodd"></path><path id="path4" d="M6.400 3.200 L 6.400 6.400 3.200 6.400 L 0.000 6.400 0.000 375.000 L 0.000 743.600 3.200 743.600 L 6.400 743.600 6.400 746.800 L 6.400 750.000 50.000 750.000 L 93.600 750.000 93.600 746.861 L 93.600 743.722 98.330 743.484 C 104.226 743.188,105.003 742.866,105.659 740.445 C 106.247 738.276,106.659 43.954,106.085 22.000 C 105.667 5.984,106.126 6.908,98.388 6.519 L 93.600 6.278 93.600 3.139 L 93.600 0.000 50.000 0.000 L 6.400 0.000 6.400 3.200 M306.400 3.139 L 306.400 6.278 301.612 6.519 C 293.874 6.908,294.333 5.984,293.915 22.000 C 293.341 43.954,293.753 738.276,294.341 740.445 C 294.997 742.866,295.774 743.188,301.670 743.484 L 306.400 743.722 306.400 746.861 L 306.400 750.000 350.000 750.000 L 393.600 750.000 393.600 746.800 L 393.600 743.600 396.800 743.600 L 400.000 743.600 400.000 375.000 L 400.000 6.400 396.800 6.400 L 393.600 6.400 393.600 3.200 L 393.600 0.000 350.000 0.000 L 306.400 0.000 306.400 3.139 " stroke="none" fill="#ffffff" fill-rule="evenodd"></path></g></svg>